<?xml version="1.0" encoding="utf-8"?>
<!-- Generator: Adobe Illustrator 18.0.0, SVG Export Plug-In . SVG Version: 6.00 Build 0)  -->
<!DOCTYPE svg PUBLIC "-//W3C//DTD SVG 1.1//EN" "http://www.w3.org/Graphics/SVG/1.1/DTD/svg11.dtd">
<svg version="1.1" id="Capa_1" xmlns="http://www.w3.org/2000/svg" xmlns:xlink="http://www.w3.org/1999/xlink" x="0px" y="0px"
	 viewBox="0 0 100 80" enable-background="new 0 0 100 80" xml:space="preserve">
<g>
	<path fill="#FFFFFF" d="M50,30c-8.3,0-15,6.7-15,15c0,8.3,6.7,15,15,15c8.3,0,15-6.7,15-15C65,36.7,58.3,30,50,30z M90,15H78
		c-1.7,0-3.4-1.3-3.9-2.8l-3.1-9.3C70.4,1.3,68.7,0,67,0H33c-1.6,0-3.4,1.3-3.9,2.8l-3.1,9.3C25.4,13.7,23.6,15,22,15H10
		C4.5,15,0,19.5,0,25v45c0,5.5,4.5,10,10,10h80c5.5,0,10-4.5,10-10V25C100,19.5,95.5,15,90,15z M50,70c-13.8,0-25-11.2-25-25
		c0-13.8,11.2-25,25-25c13.8,0,25,11.2,25,25C75,58.8,63.8,70,50,70z M86.5,32c-1.9,0-3.5-1.6-3.5-3.5c0-1.9,1.6-3.5,3.5-3.5
		c1.9,0,3.5,1.6,3.5,3.5C90,30.4,88.4,32,86.5,32z"/>
</g>
</svg>
