<?xml version="1.0" encoding="utf-8"?>
<!-- Generator: Adobe Illustrator 18.0.0, SVG Export Plug-In . SVG Version: 6.00 Build 0)  -->
<!DOCTYPE svg PUBLIC "-//W3C//DTD SVG 1.1//EN" "http://www.w3.org/Graphics/SVG/1.1/DTD/svg11.dtd">
<svg version="1.1" id="Capa_1" xmlns="http://www.w3.org/2000/svg" xmlns:xlink="http://www.w3.org/1999/xlink" x="0px" y="0px"
	 viewBox="0 0 16 16" enable-background="new 0 0 16 16" xml:space="preserve">
<g>
	<path fill="#FFFFFF" d="M8,0.6C3.8,0.6,0.5,4,0.5,8.1c0,4.1,3.3,7.5,7.5,7.5c4.1,0,7.5-3.3,7.5-7.5C15.4,4,12.1,0.6,8,0.6z M8,14.6
		c-3.6,0-6.5-2.9-6.5-6.5S4.4,1.6,8,1.6c3.6,0,6.5,2.9,6.5,6.5C14.4,11.7,11.5,14.6,8,14.6z"/>
	<path fill="#FFFFFF" d="M10.8,6.5L7.9,9.3L5,6.5c-0.2-0.2-0.5-0.2-0.7,0C4.1,6.6,4.1,7,4.3,7.2l3.2,3.2c0.1,0.1,0.2,0.1,0.4,0.1
		c0.1,0,0.3,0,0.4-0.1l3.2-3.2c0.2-0.2,0.2-0.5,0-0.7C11.3,6.3,11,6.3,10.8,6.5z"/>
</g>
</svg>
