<?xml version="1.0" encoding="utf-8"?>
<!-- Generator: Adobe Illustrator 18.0.0, SVG Export Plug-In . SVG Version: 6.00 Build 0)  -->
<!DOCTYPE svg PUBLIC "-//W3C//DTD SVG 1.1//EN" "http://www.w3.org/Graphics/SVG/1.1/DTD/svg11.dtd">
<svg version="1.1" id="Layer_1" xmlns="http://www.w3.org/2000/svg" xmlns:xlink="http://www.w3.org/1999/xlink" x="0px" y="0px"
	 viewBox="0 0 30 30" enable-background="new 0 0 30 30" xml:space="preserve">
<g>
	<path fill="#547BBC" d="M15,30c8.3,0,15-6.7,15-15c0-8.3-6.7-15-15-15S0,6.7,0,15C0,23.3,6.7,30,15,30"/>
	<path fill="#FFFFFF" d="M11.4,12.5h1.6V11c0-0.7,0-1.7,0.5-2.3c0.5-0.7,1.2-1.1,2.4-1.1c2,0,2.8,0.3,2.8,0.3l-0.4,2.3
		c0,0-0.6-0.2-1.2-0.2c-0.6,0-1.1,0.2-1.1,0.8v1.8h2.5l-0.2,2.2h-2.3v7.8h-2.9v-7.8h-1.6L11.4,12.5L11.4,12.5z"/>
</g>
<g>
</g>
<g>
</g>
<g>
</g>
<g>
</g>
<g>
</g>
<g>
</g>
<g>
</g>
<g>
</g>
<g>
</g>
<g>
</g>
<g>
</g>
<g>
</g>
<g>
</g>
<g>
</g>
<g>
</g>
</svg>
