<?xml version="1.0" encoding="utf-8"?>
<!-- Generator: Adobe Illustrator 18.0.0, SVG Export Plug-In . SVG Version: 6.00 Build 0)  -->
<!DOCTYPE svg PUBLIC "-//W3C//DTD SVG 1.1//EN" "http://www.w3.org/Graphics/SVG/1.1/DTD/svg11.dtd">
<svg version="1.1" id="Layer_1" xmlns="http://www.w3.org/2000/svg" xmlns:xlink="http://www.w3.org/1999/xlink" x="0px" y="0px"
	 viewBox="0 0 30 30" enable-background="new 0 0 30 30" xml:space="preserve">
<g>
	<path fill="#4B4B4B" d="M15,30c8.3,0,15-6.7,15-15c0-8.3-6.7-15-15-15C6.7,0,0,6.7,0,15C0,23.3,6.7,30,15,30"/>
	<path fill="#FFFFFF" d="M12.5,21.7c-1.8,0-3.1-1.1-3.1-2.5c0-1.3,1.6-2.4,3.4-2.4c0.4,0,0.8,0.1,1.2,0.2c1,0.7,1.7,1.1,1.9,1.8
		c0,0.2,0.1,0.3,0.1,0.5C15.9,20.7,15,21.7,12.5,21.7 M13,13.8c-1.2,0-2.3-1.3-2.5-2.9c-0.2-1.6,0.6-2.8,1.8-2.7
		c1.2,0,2.3,1.3,2.5,2.9C15,12.6,14.2,13.8,13,13.8 M15.5,16.1c-0.4-0.3-1.2-1-1.2-1.4c0-0.5,0.1-0.7,0.9-1.3
		c0.8-0.6,1.3-1.4,1.3-2.4c0-1.2-0.5-2.3-1.5-2.7h1.5l1-0.8h-4.6c-2.1,0-4,1.6-4,3.4c0,1.9,1.4,3.4,3.5,3.4c0.1,0,0.3,0,0.4,0
		c-0.1,0.3-0.2,0.6-0.2,0.9c0,0.5,0.3,0.9,0.6,1.3c-0.3,0-0.5,0-0.8,0c-2.6,0-4.6,1.6-4.6,3.3c0,1.7,2.2,2.7,4.8,2.7
		c2.9,0,4.6-1.7,4.6-3.3C17.1,17.8,16.7,17,15.5,16.1 M22.2,13.9h-1.8v-1.8H19v1.8h-1.8v1.5H19v1.8h1.5v-1.8h1.8
		C22.2,15.4,22.2,13.9,22.2,13.9z"/>
</g>
<g>
</g>
<g>
</g>
<g>
</g>
<g>
</g>
<g>
</g>
<g>
</g>
<g>
</g>
<g>
</g>
<g>
</g>
<g>
</g>
<g>
</g>
<g>
</g>
<g>
</g>
<g>
</g>
<g>
</g>
</svg>
