<?xml version="1.0" encoding="utf-8"?>
<!-- Generator: Adobe Illustrator 18.0.0, SVG Export Plug-In . SVG Version: 6.00 Build 0)  -->
<!DOCTYPE svg PUBLIC "-//W3C//DTD SVG 1.1//EN" "http://www.w3.org/Graphics/SVG/1.1/DTD/svg11.dtd">
<svg version="1.1" id="Layer_1" xmlns="http://www.w3.org/2000/svg" xmlns:xlink="http://www.w3.org/1999/xlink" x="0px" y="0px"
	 viewBox="0 0 30 30" enable-background="new 0 0 30 30" xml:space="preserve">
<g>
	<path fill="#1384C7" d="M15,30c8.3,0,15-6.7,15-15c0-8.3-6.7-15-15-15C6.7,0,0,6.7,0,15C0,23.3,6.7,30,15,30"/>
	<path fill="#FFFFFF" d="M10.8,21.3H7.9v-9.4h2.9V21.3z M9.3,10.7L9.3,10.7c-1.1,0-1.8-0.7-1.8-1.6c0-0.9,0.7-1.6,1.8-1.6
		c1.1,0,1.7,0.7,1.8,1.6C11,10,10.4,10.7,9.3,10.7z M22.5,21.3h-3.3v-4.8c0-1.3-0.5-2.1-1.7-2.1c-0.9,0-1.4,0.6-1.6,1.1
		c-0.1,0.2-0.1,0.5-0.1,0.8v5.1h-3.3c0,0,0-8.6,0-9.4h3.3v1.5c0.2-0.6,1.2-1.6,2.9-1.6c2.1,0,3.7,1.3,3.7,4.2L22.5,21.3L22.5,21.3z"
		/>
</g>
<g>
</g>
<g>
</g>
<g>
</g>
<g>
</g>
<g>
</g>
<g>
</g>
<g>
</g>
<g>
</g>
<g>
</g>
<g>
</g>
<g>
</g>
<g>
</g>
<g>
</g>
<g>
</g>
<g>
</g>
</svg>
