<?xml version="1.0" encoding="utf-8"?>
<!-- Generator: Adobe Illustrator 18.0.0, SVG Export Plug-In . SVG Version: 6.00 Build 0)  -->
<!DOCTYPE svg PUBLIC "-//W3C//DTD SVG 1.1//EN" "http://www.w3.org/Graphics/SVG/1.1/DTD/svg11.dtd">
<svg version="1.1" id="Layer_1" xmlns="http://www.w3.org/2000/svg" xmlns:xlink="http://www.w3.org/1999/xlink" x="0px" y="0px"
	 viewBox="0 0 30 30" enable-background="new 0 0 30 30" xml:space="preserve">
<g>
	<path fill="#78CBEF" d="M15,30c8.3,0,15-6.7,15-15c0-8.3-6.7-15-15-15C6.7,0,0,6.7,0,15C0,23.3,6.7,30,15,30"/>
	<path fill="#FFFFFF" d="M22.5,11.1c-0.6,0.2-1.1,0.4-1.8,0.5c0.6-0.4,1.1-1,1.4-1.7c-0.6,0.4-1.3,0.6-2,0.7c-0.6-0.6-1.4-1-2.2-1
		c-1.7,0-3.1,1.4-3.1,3.1c0,0.2,0,0.5,0.1,0.7c-2.6-0.1-4.8-1.4-6.4-3.2c-0.3,0.5-0.4,1-0.4,1.6c0,1.1,0.5,2,1.4,2.6
		c-0.5,0-1-0.2-1.4-0.4v0c0,1.5,1.1,2.7,2.5,3c-0.3,0.1-0.5,0.1-0.8,0.1c-0.2,0-0.4,0-0.6-0.1c0.4,1.2,1.5,2.1,2.9,2.1
		C11,20,9.7,20.5,8.2,20.5c-0.2,0-0.5,0-0.7,0c1.4,0.9,3,1.4,4.7,1.4c5.7,0,8.8-4.7,8.8-8.8c0-0.1,0-0.3,0-0.4
		C21.6,12.2,22.1,11.7,22.5,11.1"/>
</g>
<g>
</g>
<g>
</g>
<g>
</g>
<g>
</g>
<g>
</g>
<g>
</g>
<g>
</g>
<g>
</g>
<g>
</g>
<g>
</g>
<g>
</g>
<g>
</g>
<g>
</g>
<g>
</g>
<g>
</g>
</svg>
